<?xml version="1.0" encoding="UTF-8"?>
<svg viewBox="0 0 442 442" xmlns="http://www.w3.org/2000/svg">
 <g transform="translate(-258 -116.36)" fill-rule="evenodd">
  <path transform="translate(112,-148)" d="m588 485.36a221 221 0 1 1 -442 0 221 221 0 1 1 442 0z"/>
  <path d="m676.99 271.99c-29.655-3.1405-70.58 25.02-78.021 46.955 4.2596 9.5414 1.8423 19.098-2.4084 21.896-5.4151 3.5049-11.148 3.6321-10.585 10.295 0.178 9.5848-1.349 19.856-9.7606 32.844l-4.0563-37.966c3.8322-12.599 6.5476-24.928-2.4084-34.149 0.45898-19.096 1.7401-38.362-8.9366-57.25-11.363-20.103-29.158-46.972-60.921-61.887-59.618-27.996-186.75 12.126-224.16 61.249 38.049-78.673 168.22-100.49 211.98-85.598 8.2659-21.093 34.853-16.638 48.752-11.098-19.056-1.4916-31.684 3.8652-32.533 15.782l15.503 7.3021c6.5648-10.111 15.599-7.0621 21.914-4.9076-6.2716 0.55559-13.199 4.2967-11.332 12.573 22.167 12.157 33.155 38.236 42.962 53.025 8.7464-12.426 14.235-25.589 37.394-34.752-4.4964-33.566-39.731-53.614-82.901-70.157 50.97 10.398 95.221 29.318 109.71 85.624-35.952-1.7657-43.484 20.837-54.444 40.527 13.745-16.217 37.713-21.512 43.035-14.765-16.227 2.9927-30.903 17.065-29.725 24.808 18.38-13.396 43.107-23.052 54.951-17.125-21.402 1.6238-42.458 22.725-50.387 34.149 39.131-22.541 69.076-25.157 76.373-17.376zm-85.31 57.351c0.01249-0.23794 0-0.45879 0-0.70308 4e-5 -2.9924-0.98942-5.593-2.3451-6.629-0.11133-0.08202-0.26407-0.19014-0.38028-0.2511l-0.12676-0.05022c-0.08882-0.03747-0.22582-0.07572-0.31691-0.10044l-0.19014-0.05022c-0.0464-0.00684-0.14327 0.00346-0.19014 0h-0.19014c-0.04701 0.00232-0.14359-0.00572-0.19014 0-0.03093 0.00457-0.09605-0.00604-0.12676 0l-0.19014 0.05022-0.12676 0.05022-0.19014 0.10044c-0.02919 0.01456-0.09786 0.03431-0.12676 0.05022-1.51 0.87063-2.5986 3.6237-2.5986 6.8299s1.0886 5.909 2.5986 6.7796c0.08672 0.04775 0.22768 0.11527 0.3169 0.15066l0.12676 0.05022 0.19014 0.05022c0.03071 0.00604 0.09583-0.00457 0.12676 0 0.04655 0.00572 0.14313 0.0479 0.19014 0.05022h0.06338c0.0946 0 0.22411-0.03653 0.3169-0.05022l0.19014-0.05022c0.09109-0.02472 0.22809-0.06296 0.31691-0.10044l0.12676-0.05022c0.07263-0.0381 0.18275-0.10425 0.25352-0.15066l0.12676-0.10044c1.245-0.95141 2.2046-3.199 2.3451-5.8757z" fill="#fff"/>
  <path d="m564.86 323.47c2.0096 5.5899-0.40529 13.517-4.8742 22.529 12.173 22.79 6.2261 34.811 1.6248 47.633 9.2069 0.81502 18.414-3.1781 27.621-10.943-4.633 8.3664-12.299 20.99-38.182 21.885-10.538-7.9388-8.6637-15.878-11.373-23.816l10.561 10.299c12.901-13.058 7.8635-29.274 1.6247-45.702 5.0988-6.0811 10.029-12.43 12.998-21.885z" fill="#fff"/>
  <path d="m533.18 391.06c-14.625-13.034-19.762-27.948-17.06-44.414 3.1818 6.0882 5.6662 13.005 12.998 14.161-6.8079-13.732 5.3311-28.751-8.1237-43.127 6.1099 0.77705 11.486 5.041 15.435 16.092 17.829-27.454-7.2704-59.228-38.182-53.426-0.45973-5.898 30.044-15.287 51.992 4.5058-10.443-11.629-24.664-40.048-63.444-43.787-9.9269-0.95723-65.415 5.3696-80.593 20.164l-20.335-13.1c13.687-11.514 75.029-20.982 96.913-21.817 38.165-1.4253 50.011 19.759 64.209 32.792 17.874 16.408 13.511 31.755 13.81 47.633-2.7148 27.849-24.239 34.952-27.621 84.323z" fill="#fff"/>
  <path d="m506.92 214.31c-43.431-36.947-151.09 5.0954-173.3 17.094-28.912 15.621-55.632 40.212-71.223 68.585-15.56 89.451 29.868 174.12 87.484 214.44 80.511 56.346 182.1 56.912 258.42-0.0566 48.608-36.282 79.444-85.785 89.119-146.35 3.2163 55.178-173.86 127.03-230.34 103.41 75.117-12.852 89.56-28.792 100.34-40.458-51.601-4.3684-111.86-30.887-95.296-90.201 16.083-57.587-28.224-99.738-82.943-91.308 17.64-25.421 58.5-42.338 117.74-35.157z" fill="#fff"/>
  <path d="m279.9 405.69c29.655 3.1405 70.58-25.02 78.021-46.955-4.2596-9.5414-1.8423-19.098 2.4084-21.896 5.4151-3.5049 11.148-3.6321 10.585-10.295-0.178-9.5848 1.349-19.856 9.7606-32.844l4.0563 37.966c-3.8322 12.599-6.5476 24.928 2.4084 34.149-0.45898 19.096-1.7401 38.362 8.9366 57.25 11.363 20.103 29.158 46.972 60.921 61.887 59.618 27.996 186.75-12.126 224.16-61.249-38.049 78.673-168.22 100.49-211.98 85.598-8.2659 21.093-34.853 16.638-48.752 11.098 18.222-1.321 29.744-4.2857 32.533-15.782l-15.503-7.3021c-6.5648 10.111-15.5 6.1756-21.815 4.0211 10.416-1.4533 12.659-4.35 11.158-10.654-21.014-13.287-33.079-39.267-42.886-54.057-8.7464 12.426-14.235 25.589-37.394 34.752 4.4964 33.566 39.731 53.614 82.901 70.157-50.97-10.398-95.221-29.318-109.71-85.624 35.952 1.7657 43.484-20.837 54.444-40.527-13.745 16.217-37.713 21.512-43.035 14.765 16.227-2.9927 30.903-17.065 29.725-24.808-18.38 13.396-43.107 23.052-54.951 17.125 21.402-1.6238 42.458-22.725 50.387-34.149-39.131 22.541-69.076 25.157-76.373 17.376zm85.31-57.351c-0.01249 0.23794 0 0.45879 0 0.70308-4e-5 2.9924 0.98942 5.593 2.3451 6.629 0.11133 0.08202 0.26407 0.19014 0.38028 0.2511l0.12676 0.05022c0.08882 0.03747 0.22582 0.07572 0.31691 0.10044l0.19014 0.05022c0.0464 0.00684 0.14327-0.00346 0.19014 0h0.19014c0.04701-0.00232 0.14359 0.00572 0.19014 0 0.03093-0.00457 0.09605 0.00604 0.12676 0l0.19014-0.05022 0.12676-0.05022 0.19014-0.10044c0.02919-0.01456 0.09786-0.03431 0.12676-0.05022 1.51-0.87063 2.5986-3.6237 2.5986-6.8299s-1.0886-5.909-2.5986-6.7796c-0.08672-0.04775-0.22768-0.11527-0.3169-0.15066l-0.12676-0.05022-0.19014-0.05022c-0.03071-0.00604-0.09583 0.00457-0.12676 0-0.04655-0.00572-0.14313-0.0479-0.19014-0.05022h-0.06338c-0.0946 0-0.22411 0.03653-0.3169 0.05022l-0.19014 0.05022c-0.09109 0.02472-0.22809 0.06296-0.31691 0.10044l-0.12676 0.05022c-0.07263 0.0381-0.18275 0.10425-0.25352 0.15066l-0.12676 0.10044c-1.245 0.95141-2.2046 3.199-2.3451 5.8757z"/>
  <path d="m392.03 354.22c-2.0096-5.5899 0.40529-13.517 4.8742-22.529-12.173-22.79-6.2261-34.811-1.6248-47.633-9.2069-0.81502-18.414 3.1781-27.621 10.943 4.633-8.3664 12.299-20.99 38.182-21.885 10.538 7.9388 8.6637 15.878 11.373 23.816l-10.561-10.299c-12.901 13.058-7.8635 29.274-1.6247 45.702-5.0988 6.0811-10.029 12.43-12.998 21.885z"/>
  <path d="m423.71 286.63c14.625 13.034 19.762 27.948 17.06 44.414-3.1818-6.0882-5.6662-13.005-12.998-14.161 6.8079 13.732-5.3311 28.751 8.1237 43.127-6.1099-0.77705-11.486-5.041-15.435-16.092-17.829 27.454 7.2704 59.228 38.182 53.426 0.45973 5.898-30.044 15.287-51.992-4.5058 10.443 11.629 24.664 40.048 63.444 43.787 9.9269 0.95723 65.415-5.3696 80.593-20.164l20.335 13.1c-13.687 11.514-75.029 20.982-96.913 21.817-38.165 1.4253-50.011-19.759-64.209-32.792-17.874-16.408-13.511-31.755-13.81-47.633 2.7148-27.849 24.239-34.952 27.621-84.323z"/>
 </g>
</svg>
