<?xml version="1.0" standalone="no"?>
<!DOCTYPE svg PUBLIC "-//W3C//DTD SVG 20010904//EN"
 "http://www.w3.org/TR/2001/REC-SVG-20010904/DTD/svg10.dtd">
<svg version="1.0" xmlns="http://www.w3.org/2000/svg"
 width="300.000000pt" height="300.000000pt" viewBox="0 0 300.000000 300.000000"
 preserveAspectRatio="xMidYMid meet">
<metadata>
Created by potrace 1.10, written by Peter Selinger 2001-2011
</metadata>
<g transform="translate(0.000000,300.000000) scale(0.100000,-0.100000)"
fill="#000000" stroke="none">
<path d="M1489 2679 c-156 -110 -314 -222 -350 -247 -55 -40 -184 -182 -164
-182 3 0 81 38 173 85 l167 85 232 230 c128 126 230 230 229 230 -2 0 -131
-90 -287 -201z"/>
<path d="M2625 2693 c-104 -80 -260 -203 -345 -272 -85 -70 -193 -156 -240
-191 -130 -98 -456 -387 -447 -396 2 -2 158 48 347 111 l344 114 189 273 c104
150 225 324 269 386 44 63 78 115 76 117 -2 2 -88 -63 -193 -142z"/>
<path d="M1080 2566 l-305 -243 -52 -89 c-28 -49 -50 -91 -48 -92 2 -2 79 48
172 112 l169 116 164 191 c170 198 214 250 208 248 -2 0 -140 -110 -308 -243z"/>
<path d="M1424 2423 c-65 -32 -128 -69 -139 -83 -11 -14 -51 -60 -88 -102 -37
-43 -64 -78 -59 -78 30 0 114 51 190 115 105 89 229 204 221 205 -3 0 -59 -26
-125 -57z"/>
<path d="M1915 2305 c-159 -85 -296 -158 -304 -163 -9 -5 -18 -46 -27 -117 -7
-61 -15 -125 -18 -143 -5 -31 8 -21 162 130 92 90 231 219 307 287 160 141
181 161 175 161 -3 0 -135 -70 -295 -155z"/>
<path d="M1236 2347 c-11 -7 -83 -46 -160 -87 l-140 -75 -25 -58 c-13 -31 -22
-59 -20 -62 3 -2 47 13 99 34 76 32 100 47 129 83 19 23 62 73 94 111 57 65
63 80 23 54z"/>
<path d="M830 2214 c-74 -52 -152 -104 -172 -116 -32 -18 -38 -27 -38 -55 0
-18 2 -33 5 -33 17 0 273 164 269 172 -3 5 13 36 36 69 23 32 40 59 38 59 -2
-1 -64 -44 -138 -96z"/>
<path d="M1362 2269 c-23 -17 -42 -32 -42 -35 0 -3 72 22 170 59 8 3 -8 6 -36
6 -41 1 -58 -5 -92 -30z"/>
<path d="M1220 2165 c-189 -74 -349 -137 -355 -140 -5 -3 24 -3 66 0 42 2 159
7 260 11 l184 7 82 45 c46 25 82 47 80 48 -1 1 -54 -4 -117 -11 -63 -7 -117
-11 -118 -9 -2 1 16 15 40 30 159 99 244 157 226 154 -2 -1 -158 -61 -348
-135z"/>
<path d="M830 2106 c-19 -13 -54 -50 -77 -84 l-43 -60 43 11 c23 6 46 17 52
26 34 55 74 131 67 130 -4 0 -23 -11 -42 -23z"/>
<path d="M2475 2075 c-152 -32 -169 -38 -335 -119 -96 -47 -164 -83 -150 -81
14 3 90 14 170 26 159 23 177 30 390 143 69 36 116 65 105 65 -11 -1 -92 -16
-180 -34z"/>
<path d="M698 2023 c-44 -24 -61 -43 -39 -43 5 0 16 -2 24 -5 8 -4 24 9 41 35
14 22 25 40 24 40 -2 0 -24 -12 -50 -27z"/>
<path d="M1397 2019 c21 -21 25 -22 78 -10 31 7 55 14 53 16 -2 1 -37 5 -78 9
l-75 7 22 -22z"/>
<path d="M1175 2011 l-70 -6 109 -44 c119 -48 118 -47 191 -139 l50 -62 3 60
c2 44 7 60 17 60 25 0 17 14 -48 78 l-63 62 -59 -2 c-33 -1 -91 -4 -130 -7z"/>
<path d="M940 1977 c-47 -11 -80 -22 -75 -23 6 -2 75 -10 154 -18 79 -8 145
-17 148 -20 3 -2 7 -23 10 -45 3 -23 8 -41 12 -41 3 0 26 16 50 35 43 34 43
35 20 44 -13 5 -64 27 -113 50 -49 22 -96 40 -105 40 -9 -1 -54 -11 -101 -22z"/>
<path d="M550 1905 c-41 -41 -77 -75 -81 -75 -3 0 -4 14 -1 30 2 17 8 30 13
30 5 0 9 11 9 25 0 14 -5 25 -10 25 -18 0 -91 -41 -88 -49 2 -4 23 -39 48 -79
61 -99 107 -114 181 -60 23 17 31 19 43 9 12 -10 17 -9 25 7 23 43 -31 44 -84
2 -43 -34 -84 -39 -108 -12 -10 10 -17 21 -17 24 0 4 20 18 44 32 55 32 148
37 166 9 8 -15 9 -13 4 8 -5 23 2 33 51 74 30 26 54 50 52 52 -2 2 -27 -2 -54
-8 -46 -11 -54 -10 -85 9 l-34 21 -74 -74z"/>
<path d="M819 1901 c-17 -22 -32 -42 -33 -46 -1 -8 197 -96 202 -90 3 2 -8 25
-22 51 -14 26 -24 49 -22 52 3 2 37 7 76 10 39 2 69 6 67 8 -3 3 -223 54 -233
54 -2 0 -17 -18 -35 -39z"/>
<path d="M2345 1894 c-126 -18 -338 -47 -470 -63 -132 -17 -255 -33 -273 -36
l-32 -6 36 -67 c20 -37 44 -74 53 -82 10 -8 70 -28 135 -45 l118 -30 71 40
c40 21 185 99 322 172 236 125 287 153 275 151 -3 0 -108 -15 -235 -34z"/>
<path d="M1320 1875 c0 -3 -11 -57 -25 -121 -14 -64 -25 -118 -25 -121 0 -8
23 1 108 45 l83 43 -62 75 c-61 73 -79 91 -79 79z"/>
<path d="M748 1813 c-8 -10 -32 -39 -52 -65 l-38 -48 88 0 89 0 -32 26 c-18
14 -33 29 -33 34 0 5 13 17 30 27 l30 17 -23 13 c-30 17 -41 16 -59 -4z"/>
<path d="M1200 1743 l-61 -78 -174 -66 -173 -66 25 -56 c14 -31 30 -57 34 -57
6 0 262 192 313 235 10 9 34 45 93 143 26 42 5 22 -57 -55z"/>
<path d="M1542 1708 l3 -63 39 -3 c21 -2 36 0 34 5 -26 58 -64 123 -71 123 -4
0 -7 -28 -5 -62z"/>
<path d="M1354 1641 c-94 -54 -404 -259 -404 -267 0 -2 44 -4 98 -4 l97 1 109
92 c66 55 130 119 159 160 27 37 48 70 46 71 -2 2 -49 -22 -105 -53z"/>
<path d="M1568 1493 c13 -65 26 -120 28 -122 1 -2 120 19 264 45 l261 49 -58
13 c-32 8 -160 40 -286 73 -125 32 -229 59 -231 59 -2 0 8 -53 22 -117z"/>
<path d="M1472 1542 c-28 -33 -52 -64 -52 -69 0 -8 129 -47 135 -41 2 2 -4 41
-14 87 l-16 83 -53 -60z"/>
<path d="M1981 1576 l-44 -23 114 -39 c90 -30 316 -78 326 -70 5 4 -328 156
-339 156 -7 -1 -33 -11 -57 -24z"/>
<path d="M736 1370 c-21 -83 -35 -157 -33 -164 8 -20 191 -158 195 -147 7 21
-101 437 -117 454 -5 4 -25 -60 -45 -143z"/>
<path d="M1261 1442 l-95 -77 70 -8 c106 -12 106 -12 120 63 15 78 17 100 7
99 -5 0 -50 -35 -102 -77z"/>
<path d="M1409 1357 c-29 -33 -45 -58 -36 -54 10 4 55 16 100 28 45 11 85 24
89 28 5 4 -16 19 -46 33 l-53 26 -54 -61z"/>
<path d="M318 1374 c-16 -8 -28 -21 -28 -28 0 -7 -18 -18 -40 -25 -37 -11 -40
-14 -34 -39 15 -66 16 -67 29 -34 12 26 20 31 62 37 26 3 60 9 75 11 24 5 28
1 37 -33 14 -51 14 -59 -5 -88 -20 -30 -12 -31 31 -5 23 14 38 35 49 67 9 26
16 48 16 50 0 5 -154 103 -160 103 -3 -1 -17 -8 -32 -16z"/>
<path d="M2308 1362 c-26 -9 -49 -20 -53 -23 -3 -4 24 -13 61 -20 50 -10 81
-24 118 -51 54 -41 63 -42 181 -29 l60 6 -115 23 c-63 13 -124 26 -134 29 -14
4 7 16 70 40 49 19 91 37 93 39 2 2 -49 4 -115 3 -84 0 -133 -5 -166 -17z"/>
<path d="M1035 1228 c35 -68 68 -124 73 -126 5 -1 12 37 16 85 4 48 10 105 13
126 l6 37 -86 0 -86 0 64 -122z"/>
<path d="M1185 1283 c14 -31 27 -58 28 -58 1 -1 21 -11 44 -23 l41 -21 7 61
c4 33 3 63 -1 68 -8 6 -113 30 -136 30 -4 0 4 -26 17 -57z"/>
<path d="M1780 1305 c-59 -13 -138 -39 -180 -59 l-75 -37 55 6 c104 11 155 26
240 70 47 24 81 44 75 44 -5 -1 -57 -11 -115 -24z"/>
<path d="M960 1015 l1 -310 33 75 c18 41 52 113 75 159 l43 84 -19 41 c-10 23
-44 91 -75 151 l-58 110 0 -310z"/>
<path d="M2055 1299 l-70 -18 62 5 c34 3 81 11 105 18 l43 14 -35 0 c-19 0
-66 -9 -105 -19z"/>
<path d="M512 1251 c-9 -26 -7 -32 33 -71 l43 -42 51 12 c28 7 53 16 56 20 4
6 -157 110 -170 110 -2 0 -8 -13 -13 -29z"/>
<path d="M1328 1274 c-13 -13 -9 -74 5 -74 6 0 53 13 102 29 90 28 90 28 50
34 -90 14 -150 18 -157 11z"/>
<path d="M2140 1271 l-65 -6 145 -38 c156 -42 336 -79 323 -67 -4 4 -41 33
-82 64 l-73 56 -92 -2 c-50 -1 -120 -4 -156 -7z"/>
<path d="M1636 1165 c-33 -30 -53 -55 -45 -55 29 -1 459 73 454 78 -7 7 -240
31 -300 31 -47 0 -54 -4 -109 -54z"/>
<path d="M1173 1168 l-41 -43 -4 -118 c-3 -82 -1 -116 6 -114 35 14 457 289
452 294 -2 2 -67 -4 -146 -12 l-142 -16 -37 25 c-20 15 -39 26 -42 26 -3 0
-23 -19 -46 -42z"/>
<path d="M2040 1152 c-41 -8 -70 -17 -65 -18 28 -8 368 -54 371 -51 4 4 -217
88 -226 86 -3 -1 -39 -8 -80 -17z"/>
<path d="M2390 1155 c0 -7 78 -143 93 -163 8 -10 17 4 38 60 29 80 29 81 -36
92 -22 4 -52 9 -67 12 -16 3 -28 3 -28 -1z"/>
<path d="M658 1137 c-21 -6 -38 -14 -38 -18 0 -6 90 -87 162 -147 14 -11 24
-9 73 16 l57 28 -90 67 c-92 69 -101 72 -164 54z"/>
<path d="M1713 1101 c-73 -9 -134 -19 -137 -22 -3 -3 28 -52 69 -110 l74 -106
68 9 c37 5 70 11 72 14 2 2 -8 33 -24 70 l-28 65 49 50 48 49 -29 -1 c-17 -1
-89 -9 -162 -18z"/>
<path d="M1940 1117 c0 -3 38 -33 85 -67 70 -49 109 -68 215 -104 72 -24 130
-42 130 -40 0 1 -55 41 -122 87 -103 70 -135 87 -193 100 -38 9 -80 19 -92 23
-13 3 -23 4 -23 1z"/>
<path d="M2531 1018 c-30 -96 -32 -111 -29 -226 l3 -123 80 62 c44 34 80 64
79 68 -6 35 -90 321 -95 321 -3 0 -20 -46 -38 -102z"/>
<path d="M1902 1006 c-19 -153 -19 -155 38 -211 28 -27 50 -53 50 -57 0 -4
-36 -49 -80 -99 -44 -51 -78 -94 -76 -96 2 -2 65 26 139 64 l135 68 -88 203
c-47 111 -91 207 -97 213 -6 6 -14 -22 -21 -85z"/>
<path d="M1496 1023 c-25 -32 -42 -61 -38 -65 4 -4 50 -22 102 -41 52 -19 104
-38 114 -43 18 -7 -40 86 -115 184 l-17 22 -46 -57z"/>
<path d="M1970 1047 c0 -7 175 -410 187 -431 7 -13 12 11 16 90 13 205 20 182
-85 261 -105 77 -118 86 -118 80z"/>
<path d="M384 1030 c3 -8 26 -85 51 -169 25 -85 47 -156 48 -158 2 -1 25 19
51 46 l48 49 -54 63 c-29 35 -71 87 -92 114 -53 68 -58 73 -52 55z"/>
<path d="M367 990 c-9 -27 -28 -262 -22 -268 3 -3 30 -14 60 -23 38 -12 55
-13 55 -5 0 27 -89 309 -93 296z"/>
<path d="M921 853 c-7 -76 -14 -139 -16 -141 -1 -1 -14 3 -29 9 -26 12 -30 10
-79 -39 l-52 -52 98 0 97 0 0 180 c0 99 -1 180 -3 180 -2 0 -9 -62 -16 -137z"/>
<path d="M1331 939 c-34 -4 -67 -9 -73 -11 -5 -2 75 -61 177 -131 103 -71 189
-127 190 -125 2 2 -38 64 -89 138 -102 150 -93 144 -205 129z"/>
<path d="M2180 931 c0 -6 5 -13 10 -16 6 -3 10 -21 10 -38 0 -34 -4 -30 130
-115 l55 -36 -34 40 c-45 52 -162 174 -167 174 -2 0 -4 -4 -4 -9z"/>
<path d="M1178 896 c-21 -11 -38 -23 -38 -26 0 -3 80 -41 177 -85 205 -93 291
-129 278 -117 -19 17 -359 244 -369 247 -6 1 -28 -7 -48 -19z"/>
<path d="M1533 857 c19 -29 60 -92 92 -140 l58 -87 59 0 c32 0 58 2 58 3 0 2
-19 48 -43 103 l-43 99 -95 37 c-52 20 -100 37 -107 37 -7 1 1 -21 21 -52z"/>
<path d="M2200 775 c0 -39 9 -63 46 -127 26 -43 48 -77 51 -74 8 7 -69 225
-83 237 -12 9 -14 3 -14 -36z"/>
<path d="M2582 704 c-42 -32 -79 -69 -87 -87 -21 -48 -95 -242 -95 -250 0 -4
30 15 68 43 l67 51 63 146 c34 80 61 147 60 149 -2 1 -36 -22 -76 -52z"/>
<path d="M685 690 c-33 -33 -56 -60 -52 -60 4 0 44 16 88 37 l80 36 -22 24
c-13 12 -25 23 -29 23 -3 0 -32 -27 -65 -60z"/>
<path d="M1117 680 l-52 -50 285 1 c176 0 277 4 263 9 -28 11 -400 90 -426 90
-10 0 -42 -22 -70 -50z"/>
<path d="M477 666 c-3 -7 -8 -33 -12 -58 l-7 -44 54 -35 c122 -81 115 -82 62
7 -98 165 -89 152 -97 130z"/>
<path d="M1918 551 c-103 -54 -190 -100 -193 -102 -5 -6 177 -119 192 -119 5
0 62 51 127 113 l118 112 -22 48 c-11 26 -24 47 -28 46 -4 0 -91 -44 -194 -98z"/>
<path d="M579 568 c12 -18 36 -59 54 -90 18 -32 37 -58 42 -58 6 0 61 16 124
34 120 35 125 46 19 46 -54 0 -71 6 -153 50 -51 28 -96 50 -100 50 -4 0 3 -15
14 -32z"/>
<path d="M2351 460 l-85 -78 40 -7 c21 -4 45 -7 52 -8 12 -2 89 160 80 168 -2
1 -41 -32 -87 -75z"/>
<path d="M1606 521 c-3 -4 16 -20 42 -34 l48 -26 59 34 60 34 -102 1 c-56 0
-104 -4 -107 -9z"/>
<path d="M1345 515 c-5 -2 -67 -5 -136 -8 -115 -3 -143 -8 -300 -53 l-173 -49
254 -12 255 -12 160 63 c88 35 167 66 175 69 8 3 -39 5 -105 5 -66 0 -124 -1
-130 -3z"/>
<path d="M1450 427 l-135 -52 45 -7 c78 -13 555 -76 557 -74 5 5 -307 186
-319 185 -7 0 -74 -24 -148 -52z"/>
<path d="M2107 339 c-71 -28 -127 -52 -125 -54 2 -1 36 -17 76 -34 l73 -30 36
57 c20 31 45 69 55 85 11 15 18 27 16 27 -2 -1 -61 -24 -131 -51z"/>
<path d="M2213 310 c-18 -27 -33 -52 -33 -55 0 -3 38 14 85 37 47 23 85 45 85
49 0 6 -60 19 -90 19 -8 0 -30 -23 -47 -50z"/>
<path d="M1681 296 c2 -2 64 -22 137 -45 116 -35 141 -40 193 -34 l61 6 -56
23 c-58 23 -354 68 -335 50z"/>
</g>
</svg>
